<svg   viewBox="0 0 527 541" fill="none" xmlns="http://www.w3.org/2000/svg">
<path d="M212.391 540.815C151.764 528.396 97.2798 494.295 58.4629 444.472C19.646 394.65 -1.03354 332.277 0.03974 268.259C1.11302 204.24 23.8708 142.649 64.3343 94.2537C104.798 45.8581 160.393 13.7374 221.399 3.50719C282.405 -6.72304 344.941 5.58814 398.074 38.2884C451.206 70.9886 491.555 121.997 512.065 182.396C532.575 242.796 531.943 308.742 510.277 368.707C488.611 428.672 447.292 478.839 393.542 510.438L274.366 292.839C278.857 290.199 282.309 286.007 284.12 280.997C285.93 275.986 285.983 270.476 284.269 265.43C282.555 260.383 279.184 256.121 274.744 253.388C270.305 250.656 265.08 249.628 259.982 250.482C254.885 251.337 250.24 254.021 246.859 258.065C243.478 262.108 241.576 267.255 241.486 272.604C241.397 277.953 243.125 283.165 246.368 287.328C249.611 291.49 254.164 294.34 259.23 295.378L212.391 540.815Z" fill="url(#paint0_linear_5_15)"/>
<defs>
<linearGradient id="paint0_linear_5_15" x1="512" y1="273" x2="2.46281e-05" y2="104" gradientUnits="userSpaceOnUse">
<stop stop-color="#283DFF"/>
<stop offset="1" stop-color="#E700DE"/>
</linearGradient>
</defs>
</svg>
